<?xml version="1.0" encoding="UTF-8" standalone="no"?>
<!-- Created with Inkscape (http://www.inkscape.org/) -->

<svg
   xmlns:dc="http://purl.org/dc/elements/1.1/"
   xmlns:cc="http://creativecommons.org/ns#"
   xmlns:rdf="http://www.w3.org/1999/02/22-rdf-syntax-ns#"
   xmlns:svg="http://www.w3.org/2000/svg"
   xmlns="http://www.w3.org/2000/svg"
   xmlns:sodipodi="http://sodipodi.sourceforge.net/DTD/sodipodi-0.dtd"
   xmlns:inkscape="http://www.inkscape.org/namespaces/inkscape"
   width="210mm"
   height="297mm"
   viewBox="0 0 744.09448819 1052.3622047"
   id="svg4554"
   version="1.1"
   inkscape:version="0.91 r13725"
   inkscape:export-filename="/home/rlarcheveque/symphony_icon_53x50.png"
   inkscape:export-xdpi="15.719632"
   inkscape:export-ydpi="15.719632"
   sodipodi:docname="symphony_logo.svg">
  <defs
     id="defs4556" />
  <sodipodi:namedview
     id="base"
     pagecolor="#ffffff"
     bordercolor="#666666"
     borderopacity="1.0"
     inkscape:pageopacity="0.0"
     inkscape:pageshadow="2"
     inkscape:zoom="0.35"
     inkscape:cx="-409.28571"
     inkscape:cy="520"
     inkscape:document-units="px"
     inkscape:current-layer="layer1"
     showgrid="false"
     inkscape:window-width="1600"
     inkscape:window-height="1161"
     inkscape:window-x="0"
     inkscape:window-y="0"
     inkscape:window-maximized="1" />
  <metadata
     id="metadata4559">
    <rdf:RDF>
      <cc:Work
         rdf:about="">
        <dc:format>image/svg+xml</dc:format>
        <dc:type
           rdf:resource="http://purl.org/dc/dcmitype/StillImage" />
        <dc:title></dc:title>
      </cc:Work>
    </rdf:RDF>
  </metadata>
  <g
     inkscape:label="Layer 1"
     inkscape:groupmode="layer"
     id="layer1">
    <g
       id="g124"
       transform="matrix(1.25,0,0,-1.25,447.54618,473.52354)"
       style="fill:#cacaca;fill-opacity:1"
       inkscape:export-xdpi="15.719632"
       inkscape:export-ydpi="15.719632">
      <path
         d="M 0,0 -36.837,-27.145 0,-54.286 l -41.926,18.326 -5.091,-45.473 -0.031,0.284 0,-0.544 0.001,0 -0.001,0 0,-59.313 47.264,0 0,141.143 L -0.089,-0.04 0,0 Z"
         style="fill:#cacaca;fill-opacity:1;fill-rule:nonzero;stroke:none"
         id="path126"
         inkscape:connector-curvature="0" />
    </g>
    <g
       id="g128"
       transform="matrix(1.25,0,0,-1.25,388.4208,574.19804)"
       style="fill:#cacaca;fill-opacity:1"
       inkscape:export-xdpi="15.719632"
       inkscape:export-ydpi="15.719632">
      <path
         d="m 0,0 -122.235,70.572 23.632,40.933 123.74,-71.442"
         style="fill:#cacaca;fill-opacity:1;fill-rule:nonzero;stroke:none"
         id="path130"
         inkscape:connector-curvature="0" />
    </g>
    <g
       id="g132"
       transform="matrix(1.25,0,0,-1.25,329.3748,471.88904)"
       style="fill:#cacaca;fill-opacity:1"
       inkscape:export-xdpi="15.719632"
       inkscape:export-ydpi="15.719632">
      <path
         d="M 0,0 122.207,70.589 145.838,29.658 22.098,-41.784"
         style="fill:#cacaca;fill-opacity:1;fill-rule:nonzero;stroke:none"
         id="path134"
         inkscape:connector-curvature="0" />
    </g>
    <g
       id="g136"
       transform="matrix(1.25,0,0,-1.25,329.91243,539.77354)">
      <path
         d="M 0,0 36.837,27.145 0,54.287 41.923,35.96 l 5.092,45.473 0.031,-0.284 0,0.543 -0.002,0 0.002,0 0,59.315 -47.264,0 0,-141.145 L 0.087,0.039 0,0 Z"
         style="fill:#005daa;fill-opacity:1;fill-rule:nonzero;stroke:none"
         id="path138"
         inkscape:connector-curvature="0" />
    </g>
    <g
       id="g140"
       transform="matrix(1.25,0,0,-1.25,447.44731,539.77354)">
      <path
         d="m 0,0 -41.923,18.329 -5.09,-45.473 -5.091,45.473 -41.836,-18.29 -0.306,-0.176 0,-0.002 0,0.002 -51.339,-29.642 23.632,-40.931 L 0.279,-0.137 -0.145,0.108 0,0 Z"
         style="fill:#002b4e;fill-opacity:1;fill-rule:nonzero;stroke:none"
         id="path142"
         inkscape:connector-curvature="0" />
    </g>
    <g
       id="g144"
       transform="matrix(1.25,0,0,-1.25,541.51581,525.83442)">
      <path
         d="m 0,0 -122.236,70.542 0,-0.544 5.058,-45.189 41.923,18.326 -36.835,-27.142 36.691,-27.036 0.423,-0.246 0.002,0 -0.002,0 L -23.635,-40.93 0,0 Z"
         style="fill:#71bbf8;fill-opacity:1;fill-rule:nonzero;stroke:none"
         id="path146"
         inkscape:connector-curvature="0" />
    </g>
    <g
       id="g148"
       transform="matrix(1.25,0,0,-1.25,382.01268,517.01291)">
      <path
         d="M 0,0 -41.979,-18.206 -5.064,8.829 -41.819,36.082 0.053,17.631 5.277,63.084 10.231,17.599 52.21,35.803 15.295,8.77 52.049,-18.485 10.179,-0.033 4.953,-45.49 0,0 Z"
         style="fill:#ffffff;fill-opacity:1;fill-rule:nonzero;stroke:none"
         id="path150"
         inkscape:connector-curvature="0" />
    </g>
    <g
       id="g152"
       transform="matrix(1.25,0,0,-1.25,382.01268,517.01291)">
      <path
         d="M 0,0 -41.979,-18.206 -5.064,8.829 -41.819,36.082 0.053,17.631 5.277,63.084 10.231,17.599 52.21,35.803 15.295,8.77 52.049,-18.485 10.179,-0.033 4.953,-45.49 0,0 Z"
         style="fill:none;stroke:#ffffff;stroke-width:0.90100002;stroke-linecap:butt;stroke-linejoin:miter;stroke-miterlimit:4;stroke-dasharray:none;stroke-opacity:1"
         id="path154"
         inkscape:connector-curvature="0" />
    </g>
  </g>
</svg>
