/* XPM */
static char * Symphony_Icon_xpm[] = {
"128 128 53 1",
" 	c #005DAA",
".	c #AFCCE4",
"+	c #FFFFFF",
"@	c #DCEEFD",
"#	c #71BBF8",
"$	c #BFD7EA",
"%	c #DFEBF4",
"&	c #F6FBFF",
"*	c #2071B5",
"=	c #7ABFF8",
"-	c #4086BF",
";	c #95CCFA",
">	c #5090C5",
",	c #80AED5",
"'	c #B8DDFC",
")	c #D3EAFD",
"!	c #EFF5FA",
"~	c #EDF7FE",
"{	c #307BBA",
"]	c #609ACA",
"^	c #AFD9FB",
"/	c #8FB8DA",
"(	c #CAE6FC",
"_	c #E4F2FE",
":	c #70A4CF",
"<	c #9FC2DF",
"[	c #CBDDEB",
"}	c #CFE1EF",
"|	c #9ACDF7",
"1	c #A9C6DE",
"2	c #1067AF",
"3	c #83C4F9",
"4	c #9DD0FA",
"5	c #8CC8F9",
"6	c #A6D5FB",
"7	c #C1E1FC",
"8	c #EFF2F4",
"9	c #8095A7",
"0	c #9FB0BD",
"a	c #506D85",
"b	c #BFCAD3",
"c	c #CFD7DE",
"d	c #607B90",
"e	c #002B4E",
"f	c #30536F",
"g	c #40607A",
"h	c #DFE5E9",
"i	c #204664",
"j	c #8FA2B2",
"k	c #103859",
"l	c #AFBDC8",
"m	c #70889B",
"n	c #ECEFF1",
"                                                              .++@##############################################################",
"                                                              $++@##############################################################",
"                                                              %++&##############################################################",
"                                                              ++++##############################################################",
"                                                             *++++=#############################################################",
"                                                             -++++;#############################################################",
"                                                             >++++;#############################################################",
"                                                             ,++++'#############################################################",
"                                                             ,++++'#############################################################",
"                                                             $++++)#############################################################",
"                                                             $++++@#############################################################",
"                                                             !++++~#############################################################",
"                                                             ++++++#############################################################",
"                                                            {++++++=############################################################",
"                                                            -++++++;############################################################",
"                                                            ]++++++;############################################################",
"                                                            ,++++++^############################################################",
"                                                            /++++++'############################################################",
"                                                            $++++++(############################################################",
"                                                            $++++++@############################################################",
"                                                            +++++++_############################################################",
"                                                            ++++++++############################################################",
"                                                           -++++++++############################################################",
"                                                           -++++++++;###########################################################",
"                                                           :++++++++;###########################################################",
"                                                           ,++++++++^###########################################################",
"                                                           <++++++++'###########################################################",
"[}]                                                        $++++++++(########################################################=^|",
"1!+%,2                                                     %++++++++@######################################################3(++;",
" 2.++!<*                                                   +++++++++@####################################################4@++&;#",
"   :++++.-                                                2++++++++++#################################################=^~+++)=##",
"    {%++++%]                                              -++++++++++###############################################3(&++++^####",
"     2.+++++!,2                                           -++++++++++5############################################;)+++++~5#####",
"       :+++++++<*                                         ,++++++++++;#########################################=6~++++++(=######",
"        {%+++++++$-                                       ,++++++++++6#######################################3'&++++++&6########",
"         2.++++++++%]2                                    .++++++++++'#####################################;(++++++++_5#########",
"           ]!++++++++!,*                                  $++++++++++7###################################6_+++++++++7###########",
"            {}++++++++++<{                                !++++++++++@################################='~+++++++++&4############",
"             2<+++++++++++$>                              +++++++++++@##############################5(+++++++++++@3#############",
"               ]!+++++++++++%:2                          *++++++++++++############################4@++++++++++++'###############",
"                {}++++++++++++!/*                        -++++++++++++#########################=^~++++++++++++&;################",
"                 2<++++++++++++++<-                      >++++++++++++3######################3(&+++++++++++++)=#################",
"                   >!++++++++++++++$]                    ,++++++++++++;####################;)+++++++++++++++^###################",
"                    *}+++++++++++++++%,2                 /++++++++++++4#################=6~+++++++++++++++~5####################",
"                      /++++++++++++++++!<*               $++++++++++++'###############37&++++++++++++++++(=#####################",
"                       >!+++++++++++++++++.-             $++++++++++++'#############;(+++++++++++++++++&6#######################",
"                        *}++++++++++++++++++}]           +++++++++++++@###########6_++++++++++++++++++_5########################",
"                          /+++++++++++++++++++%,2        +++++++++++++@########='&+++++++++++++++++++7##########################",
"                           >!++++++++++++++++++++<*     {+++++++++++++&######5(++++++++++++++++++++&4###########################",
"                            2$+++++++++++++++++++++$-   -++++++++++++++####6@+++++++++++++++++++++@3############################",
"                              ,++++++++++++++++++++++%] ]++++++++++++++3=^~++++++++++++++++++++++'##############################",
"                               -!++++++++++++++++++++++!}++++++++++++++@&++++++++++++++++++++++&;###############################",
"                                2$++++++++++++++++++++++++++++++++++++++++++++++++++++++++++++)=################################",
"                                  ,++++++++++++++++++++++++++++++++++++++++++++++++++++++++++^##################################",
"                                   -!++++++++++++++++++++++++++++++++++++++++++++++++++++++~5###################################",
"                                    2.++++++++++++++++++++++++++++++++++++++++++++++++++++(=####################################",
"                                      :+++++++++++++++++++++++++++++++++++++++++++++++++&6######################################",
"                                       {%++++++++++++++++++++++++++++++++++++++++++++++_5#######################################",
"                                        2.++++++++++++++++++++++++++++++++++++++++++++7#########################################",
"                                          :+++++++++++++++++++++++++++++++++++++++++&4##########################################",
"                                           {%++++++++++++++++++++++++++++++++++++++@3###########################################",
"                                            2.++++++++++++++++++++++++++++++++++++'#############################################",
"                                              ]!++++++++++++++++++++++++++++++++&;##############################################",
"                                               {}++++++++++++++++++++++++++++++)=###############################################",
"                                                ]+++++++++++++++++++++++++++++&=################################################",
"                                              2<+++++++++++++++++++++++++++++++&;###############################################",
"                                             {}++++++++++++++++++++++++++++++++++'##############################################",
"                                            :!++++++++++++++++++++++++++++++++++++@=############################################",
"                                          2.+++++++++++++++++++++++++++++++++++++++&;###########################################",
"                                         {%++++++++++++++++++++++++++++++++++++++++++'##########################################",
"                                        ,+++++++++++++++++++++++++++++++++++++++++++++_3########################################",
"                                      2$+++++++++++++++++++++++++++++++++++++++++++++++&4#######################################",
"                                     -!++++++++++++++++++++++++++++++++++++++++++++++++++7######################################",
"                                    /+++++++++++++++++++++++++++++++++++++++++++++++++++++_3####################################",
"                                  *}+++++++++++++++++++++++++++++++++++++++++++++++++++++++&4###################################",
"                                 >!++++++++++++++++++++++++++++++++++++++++++++++++++++++++++7##################################",
"                               2/+++++++++++++++++++++++++++++++++++++++++++++++++++++++++++++_5################################",
"                              {}++++++++++++++++++++++890++++++++++++++ab++++++++++++++++++++++&6###############################",
"                             ]!+++++++++++++++++++++cdee9++++++++++++++eef0++++++++++++++++++++++(=#############################",
"                           2.+++++++++++++++++++++0geeeeg+++++++++++++heeeei98++++++++++++++++++++_5############################",
"                          {%+++++++++++++++++++8jieeeeeeg+++++++++++++beeeeeeedh+++++++++++++++++++&6###########################",
"                         :+++++++++++++++++++hdkeeeeeeeek+++++++++++++leeeeeeeeegb+++++++++++++++++++(=#########################",
"                       2$++++++++++++++++++bgeeeeeeeeeeee+++++++++++++9eeeeeeeeeeei0++++++++++++++++++_5########################",
"                      -!++++++++++++++++80ieeeeeeeeeeeeeeh++++++++++++9eeeeeeeeeeeeek9h+++++++++++++++++^#######################",
"                     ,++++++++++++++++hmkeeeeeeeeeeeeeeeeb++++++++++++geeeeeeeeeeeeeeeedc++++++++++++++++)=#####################",
"                   *}+++++++++++++++bdeeeeeeeeeeeeeeeeeeel++++++++++++geeeeeeeeeeeeeeeeeegl+++++++++++++++~5####################",
"                  >!++++++++++++++0feeeeeeeeeeeeeeeeeeeee9++++++++++++eeeeeeeeeeeeeeeeeeeeei08++++++++++++++^###################",
"                2/+++++++++++++89keeeeeeeeeeeeeeeeeeeeeee9++++++++++++eeeeeeeeeeeeeeeeeeeeeeek9h+++++++++++++)=#################",
"               {}++++++++++++cdeeeeeeeeeeeeeeeeeeeeeeeeeea+++++++++++ceeeeeeeeeeeeeeeeeeeeeeeeeedb++++++++++++~5################",
"              ]!+++++++++++0geeeeeeeeeeeeeeeeeeeeeeeeeeeeg+++++++++++beeeeeeeeeeeeeeeeeeeeeeeeeeeeg0++++++++++++'###############",
"            2.++++++++++8jieeeeeeeeeeeeeeeeeeeeeeeeeeeeeei+++++++++++0eeeeeeeeeeeeeeeeeeeeeeeeeeeeeeij8++++++++++@=#############",
"           {%+++++++++hdkeeeeeeeeeeeeeeeeeeeeeeeeeeeeeeeee+++++++++++9eeeeeeeeeeeeeeeeeeeeeeeeeeeeeeeekmh+++++++++&;############",
"          :+++++++++lgeeeeeeeeeeeeeeeeeeeeeeeeeeeeeeeeeeee8++++++++++deeeeeeeeeeeeeeeeeeeeeeeeeeeeeeeeeeeab+++++++++'###########",
"        2$+++++++80ieeeeeeeeeeeeeeeeeeeeeeeeeeeeeeeeeeeeeeb++++++++++geeeeeeeeeeeeeeeeeeeeeeeeeeeeeeeeeeeeef0++++++++@=#########",
"       -!++++++hmkeeeeeeeeeeeeeeeeeeeeeeeeeeeeeeeeeeeeeeeeb++++++++++feeeeeeeeeeeeeeeeeeeeeeeeeeeeeeeeeeeeeeei98++++++&;########",
"      ,++++++baeeeeeeeeeeeeeeeeeeeeeeeeeeeeeeeeeeeeeeeeeee9++++++++++eeeeeeeeeeeeeeeeeeeeeeeeeeeeeeeeeeeeeeeeeekdh++++++'#######",
"    *}+++++0feeeeeeeeeeeeeeeeeeeeeeeeeeeeeeeeeeeeeeeeeeeee9++++++++++eeeeeeeeeeeeeeeeeeeeeeeeeeeeeeeeeeeeeeeeeeeeegb+++++_3#####",
"   >!+++h9keeeeeeeeeeeeeeeeeeeeeeeeeeeeeeeeeeeeeeeeeeeeeeea+++++++++beeeeeeeeeeeeeeeeeeeeeeeeeeeeeeeeeeeeeeeeeeeeeeei0++++&4####",
" 2/+++cdeeeeeeeeeeeeeeeeeeeeeeeeeeeeeeeeeeeeeeeeeeeeeeeeeeg+++++++++beeeeeeeeeeeeeeeeeeeeeeeeeeeeeeeeeeeeeeeeeeeeeeeeek98+++7###",
"1}++0geeeeeeeeeeeeeeeeeeeeeeeeeeeeeeeeeeeeeeeeeeeeeeeeeeeef+++++++++jeeeeeeeeeeeeeeeeeeeeeeeeeeeeeeeeeeeeeeeeeeeeeeeeeeeedh++_3#",
"n89ieeeeeeeeeeeeeeeeeeeeeeeeeeeeeeeeeeeeeeeeeeeeeeeeeeeeeee+++++++++9eeeeeeeeeeeeeeeeeeeeeeeeeeeeeeeeeeeeeeeeeeeeeeeeeeeeeegl+&3",
"kkeeeeeeeeeeeeeeeeeeeeeeeeeeeeeeeeeeeeeeeeeeeeeeeeeeeeeeeee+++++++++aeeeeeeeeeeeeeeeeeeeeeeeeeeeeeeeeeeeeeeeeeeeeeeeeeeeeeeeeeee",
"eeeeeeeeeeeeeeeeeeeeeeeeeeeeeeeeeeeeeeeeeeeeeeeeeeeeeeeeeeeb++++++++geeeeeeeeeeeeeeeeeeeeeeeeeeeeeeeeeeeeeeeeeeeeeeeeeeeeeeeeeee",
"eeeeeeeeeeeeeeeeeeeeeeeeeeeeeeeeeeeeeeeeeeeeeeeeeeeeeeeeeeeb++++++++ieeeeeeeeeeeeeeeeeeeeeeeeeeeeeeeeeeeeeeeeeeeeeeeeeeeeeeeeeee",
"eeeeeeeeeeeeeeeeeeeeeeeeeeeeeeeeeeeeeeeeeeeeeeeeeeeeeeeeeeej++++++++eeeeeeeeeeeeeeeeeeeeeeeeeeeeeeeeeeeeeeeeeeeeeeeeeeeeeeeeeeee",
"eeeeeeeeeeeeeeeeeeeeeeeeeeeeeeeeeeeeeeeeeeeeeeeeeeeeeeeeeee9+++++++8eeeeeeeeeeeeeeeeeeeeeeeeeeeeeeeeeeeeeeeeeeeeeeeeeeeeeeeeeeee",
"eeeeeeeeeeeeeeeeeeeeeeeeeeeeeeeeeeeeeeeeeeeeeeeeeeeeeeeeeeed+++++++beeeeeeeeeeeeeeeeeeeeeeeeeeeeeeeeeeeeeeeeeeeeeeeeeeeeeeeeeeee",
"eeeeeeeeeeeeeeeeeeeeeeeeeeeeeeeeeeeeeeeeeeeeeeeeeeeeeeeeeeeg+++++++leeeeeeeeeeeeeeeeeeeeeeeeeeeeeeeeeeeeeeeeeeeeeeeeeeeeeeeeeeee",
"eeeeeeeeeeeeeeeeeeeeeeeeeeeeeeeeeeeeeeeeeeeeeeeeeeeeeeeeeeef+++++++9eeeeeeeeeeeeeeeeeeeeeeeeeeeeeeeeeeeeeeeeeeeeeeeeeeeeeeeeeeee",
"eeeeeeeeeeeeeeeeeeeeeeeeeeeeeeeeeeeeeeeeeeeeeeeeeeeeeeeeeeee+++++++9eeeeeeeeeeeeeeeeeeeeeeeeeeeeeeeeeeeeeeeeeeeeeeeeeeeeeeeeeeee",
"eeeeeeeeeeeeeeeeeeeeeeeeeeeeeeeeeeeeeeeeeeeeeeeeeeeeeeeeeeee+++++++geeeeeeeeeeeeeeeeeeeeeeeeeeeeeeeeeeeeeeeeeeeeeeeeeeeeeeeeeeee",
"eeeeeeeeeeeeeeeeeeeeeeeeeeeeeeeeeeeeeeeeeeeeeeeeeeeeeeeeeeeec++++++geeeeeeeeeeeeeeeeeeeeeeeeeeeeeeeeeeeeeeeeeeeeeeeeeeeeeeeeeeee",
"eeeeeeeeeeeeeeeeeeeeeeeeeeeeeeeeeeeeeeeeeeeeeeeeeeeeeeeeeeeeb++++++keeeeeeeeeeeeeeeeeeeeeeeeeeeeeeeeeeeeeeeeeeeeeeeeeeeeeeeeeeee",
"eeeeeeeeeeeeeeeeeeeeeeeeeeeeeeeeeeeeeeeeeeeeeeeeeeeeeeeeeeee0++++++eeeeeeeeeeeeeeeeeeeeeeeeeeeeeeeeeeeeeeeeeeeeeeeeeeeeeeeeeeeee",
"eeeeeeeeeeeeeeeeeeeeeeeeeeeeeeeeeeeeeeeeeeeeeeeeeeeeeeeeeeee9+++++heeeeeeeeeeeeeeeeeeeeeeeeeeeeeeeeeeeeeeeeeeeeeeeeeeeeeeeeeeeee",
"eeeeeeeeeeeeeeeeeeeeeeeeeeeeeeeeeeeeeeeeeeeeeeeeeeeeeeeeeeeem+++++beeeeeeeeeeeeeeeeeeeeeeeeeeeeeeeeeeeeeeeeeeeeeeeeeeeeeeeeeeeee",
"eeeeeeeeeeeeeeeeeeeeeeeeeeeeeeeeeeeeeeeeeeeeeeeeeeeeeeeeeeeeg+++++0eeeeeeeeeeeeeeeeeeeeeeeeeeeeeeeeeeeeeeeeeeeeeeeeeeeeeeeeeeeee",
"eeeeeeeeeeeeeeeeeeeeeeeeeeeeeeeeeeeeeeeeeeeeeeeeeeeeeeeeeeeeg+++++9eeeeeeeeeeeeeeeeeeeeeeeeeeeeeeeeeeeeeeeeeeeeeeeeeeeeeeeeeeeee",
"eeeeeeeeeeeeeeeeeeeeeeeeeeeeeeeeeeeeeeeeeeeeeeeeeeeeeeeeeeeee+++++meeeeeeeeeeeeeeeeeeeeeeeeeeeeeeeeeeeeeeeeeeeeeeeeeeeeeeeeeeeee",
"eeeeeeeeeeeeeeeeeeeeeeeeeeeeeeeeeeeeeeeeeeeeeeeeeeeeeeeeeeeee+++++geeeeeeeeeeeeeeeeeeeeeeeeeeeeeeeeeeeeeeeeeeeeeeeeeeeeeeeeeeeee",
"eeeeeeeeeeeeeeeeeeeeeeeeeeeeeeeeeeeeeeeeeeeeeeeeeeeeeeeeeeeeec++++geeeeeeeeeeeeeeeeeeeeeeeeeeeeeeeeeeeeeeeeeeeeeeeeeeeeeeeeeeeee",
"eeeeeeeeeeeeeeeeeeeeeeeeeeeeeeeeeeeeeeeeeeeeeeeeeeeeeeeeeeeeeb++++eeeeeeeeeeeeeeeeeeeeeeeeeeeeeeeeeeeeeeeeeeeeeeeeeeeeeeeeeeeeee",
"eeeeeeeeeeeeeeeeeeeeeeeeeeeeeeeeeeeeeeeeeeeeeeeeeeeeeeeeeeeeel++++eeeeeeeeeeeeeeeeeeeeeeeeeeeeeeeeeeeeeeeeeeeeeeeeeeeeeeeeeeeeee",
"eeeeeeeeeeeeeeeeeeeeeeeeeeeeeeeeeeeeeeeeeeeeeeeeeeeeeeeeeeeee9+++beeeeeeeeeeeeeeeeeeeeeeeeeeeeeeeeeeeeeeeeeeeeeeeeeeeeeeeeeeeeee",
"eeeeeeeeeeeeeeeeeeeeeeeeeeeeeeeeeeeeeeeeeeeeeeeeeeeeeeeeeeeee9+++beeeeeeeeeeeeeeeeeeeeeeeeeeeeeeeeeeeeeeeeeeeeeeeeeeeeeeeeeeeeee",
"eeeeeeeeeeeeeeeeeeeeeeeeeeeeeeeeeeeeeeeeeeeeeeeeeeeeeeeeeeeeeg+++jeeeeeeeeeeeeeeeeeeeeeeeeeeeeeeeeeeeeeeeeeeeeeeeeeeeeeeeeeeeeee",
"eeeeeeeeeeeeeeeeeeeeeeeeeeeeeeeeeeeeeeeeeeeeeeeeeeeeeeeeeeeeeg+++9eeeeeeeeeeeeeeeeeeeeeeeeeeeeeeeeeeeeeeeeeeeeeeeeeeeeeeeeeeeeee",
"eeeeeeeeeeeeeeeeeeeeeeeeeeeeeeeeeeeeeeeeeeeeeeeeeeeeeeeeeeeeek+++deeeeeeeeeeeeeeeeeeeeeeeeeeeeeeeeeeeeeeeeeeeeeeeeeeeeeeeeeeeeee"};
