<?xml version="1.0" encoding="utf-8"?>
<!-- Generator: Adobe Illustrator 16.0.0, SVG Export Plug-In . SVG Version: 6.00 Build 0)  -->
<!DOCTYPE svg PUBLIC "-//W3C//DTD SVG 1.1//EN" "http://www.w3.org/Graphics/SVG/1.1/DTD/svg11.dtd">
<svg version="1.1" xmlns="http://www.w3.org/2000/svg" xmlns:xlink="http://www.w3.org/1999/xlink" x="0px" y="0px" width="792px"
	 height="612px" viewBox="0 0 792 612" enable-background="new 0 0 792 612" xml:space="preserve">
<g id="Color_test" display="none">
	<text transform="matrix(1 0 0 1 826.415 228.3413)" display="inline"><tspan x="0" y="0" font-family="'MyriadPro-Regular'" font-size="12">Pantone 289</tspan><tspan x="0" y="14.4" font-family="'MyriadPro-Regular'" font-size="12">Pantone 286</tspan><tspan x="0" y="28.8" font-family="'MyriadPro-Regular'" font-size="12">Pantone 284</tspan></text>
	<polygon display="inline" fill="#F2F2F2" points="1098.368,223.007 1061.531,250.151 1098.368,277.293 1056.442,258.967 
		1051.352,304.439 1051.32,304.156 1051.32,304.7 1051.321,304.7 1051.32,304.7 1051.32,364.013 1098.584,364.013 1098.584,222.87 
		1098.279,223.046 	"/>
	<polyline display="inline" fill="#F2F2F2" points="1051.068,303.546 928.833,232.974 952.465,192.042 1076.205,263.483 	"/>
	<polyline display="inline" fill="#F2F2F2" points="1003.831,221.699 1126.038,151.11 1149.669,192.042 1025.93,263.483 	"/>
	<g display="inline">
		<polygon fill="#005DAA" points="1004.262,276.007 1041.098,248.862 1004.262,221.72 1046.184,240.047 1051.275,194.574 
			1051.307,194.857 1051.307,194.314 1051.305,194.314 1051.307,194.314 1051.307,135 1004.043,135 1004.043,276.145 
			1004.349,275.968 		"/>
	</g>
	<g display="inline">
		<polygon fill="#002B5C" points="1098.289,276.007 1056.366,257.678 1051.276,303.15 1046.185,257.678 1004.349,275.968 
			1004.043,276.144 1004.043,276.146 1004.043,276.144 952.704,305.786 976.336,346.717 1098.568,276.144 1098.145,275.899 		"/>
	</g>
	<g display="inline">
		<polygon fill="#6CADDF" points="1173.544,264.855 1051.308,194.314 1051.308,194.858 1056.366,240.047 1098.289,221.72 
			1061.454,248.862 1098.145,275.899 1098.568,276.144 1098.57,276.144 1098.568,276.144 1149.909,305.786 		"/>
	</g>
	<polygon display="inline" fill="#FFFFFF" stroke="#FFFFFF" stroke-width="0.9013" points="1045.968,257.813 1004.043,276.144 
		1040.877,249 1004.041,221.856 1045.968,240.182 1051.058,194.714 1056.146,240.185 1098.071,221.856 1061.236,248.998 
		1098.071,276.144 1056.146,257.816 1051.056,303.288 	"/>
	<polygon display="inline" fill="#F2F2F2" points="1098.368,549.914 1061.531,577.059 1098.368,604.2 1056.442,585.874 
		1051.352,631.347 1051.32,631.063 1051.32,631.607 1051.321,631.607 1051.32,631.607 1051.32,690.92 1098.584,690.92 
		1098.584,549.777 1098.279,549.953 	"/>
	<polyline display="inline" fill="#F2F2F2" points="1051.068,630.453 928.833,559.881 952.465,518.949 1076.205,590.391 	"/>
	<polyline display="inline" fill="#F2F2F2" points="1003.831,548.606 1126.038,478.018 1149.669,518.949 1025.93,590.391 	"/>
	<g display="inline">
		<polygon fill="#005DAA" points="1004.262,602.914 1041.098,575.77 1004.262,548.627 1046.184,566.954 1051.275,521.481 
			1051.307,521.765 1051.307,521.222 1051.305,521.222 1051.307,521.222 1051.307,461.907 1004.043,461.907 1004.043,603.052 
			1004.349,602.875 		"/>
	</g>
	<g display="inline">
		<polygon fill="#003C6F" points="1098.289,602.914 1056.366,584.586 1051.276,630.058 1046.185,584.586 1004.349,602.875 
			1004.043,603.052 1004.043,603.053 1004.043,603.052 952.704,632.693 976.336,673.624 1098.568,603.052 1098.145,602.807 		"/>
	</g>
	<g display="inline">
		<polygon fill="#609FDA" points="1173.544,591.763 1051.308,521.221 1051.308,521.766 1056.366,566.954 1098.289,548.627 
			1061.454,575.77 1098.145,602.807 1098.568,603.051 1098.57,603.051 1098.568,603.051 1149.909,632.693 		"/>
	</g>
	<polygon display="inline" fill="#FFFFFF" stroke="#FFFFFF" stroke-width="0.9013" points="1045.968,584.721 1004.043,603.051 
		1040.877,575.907 1004.041,548.764 1045.968,567.09 1051.058,521.621 1056.146,567.092 1098.071,548.764 1061.236,575.905 
		1098.071,603.051 1056.146,584.723 1051.056,630.195 	"/>
	<polygon display="inline" fill="#F2F2F2" points="1369.368,223.007 1332.531,250.151 1369.368,277.293 1327.442,258.967 
		1322.352,304.439 1322.32,304.156 1322.32,304.7 1322.321,304.7 1322.32,304.7 1322.32,364.013 1369.584,364.013 1369.584,222.87 
		1369.279,223.046 	"/>
	<polyline display="inline" fill="#F2F2F2" points="1322.068,303.546 1199.833,232.974 1223.465,192.042 1347.205,263.483 	"/>
	<polyline display="inline" fill="#F2F2F2" points="1274.831,221.699 1397.038,151.11 1420.669,192.042 1296.93,263.483 	"/>
	<g display="inline">
		<polygon fill="#0038A6" points="1275.262,276.007 1312.098,248.862 1275.262,221.72 1317.184,240.047 1322.275,194.574 
			1322.307,194.857 1322.307,194.314 1322.305,194.314 1322.307,194.314 1322.307,135 1275.043,135 1275.043,276.145 
			1275.349,275.968 		"/>
	</g>
	<g display="inline">
		<polygon fill="#002B5C" points="1369.289,276.007 1327.366,257.678 1322.276,303.15 1317.185,257.678 1275.349,275.968 
			1275.043,276.144 1275.043,276.146 1275.043,276.144 1223.704,305.786 1247.336,346.717 1369.568,276.144 1369.145,275.899 		"/>
	</g>
	<g display="inline">
		<polygon fill="#76A2FA" points="1444.544,264.855 1322.308,194.314 1322.308,194.858 1327.366,240.047 1369.289,221.72 
			1332.454,248.862 1369.145,275.899 1369.568,276.144 1369.57,276.144 1369.568,276.144 1420.909,305.786 		"/>
	</g>
	<polygon display="inline" fill="#FFFFFF" stroke="#FFFFFF" stroke-width="0.9013" points="1316.968,257.813 1275.043,276.144 
		1311.877,249 1275.041,221.856 1316.968,240.182 1322.058,194.714 1327.146,240.185 1369.071,221.856 1332.236,248.998 
		1369.071,276.144 1327.146,257.816 1322.056,303.288 	"/>
	<rect x="-199.358" y="512.764" display="inline" fill="#005DAA" width="60.976" height="47.714"/>
	<rect x="-189.041" y="549.981" display="inline" fill="#0060A9" width="60.976" height="47.714"/>
	<rect x="-189.041" y="470.713" display="inline" fill="#005DAA" width="60.976" height="47.714"/>
	<rect x="20.585" y="-228.298" display="inline" fill="#001C54" width="60.976" height="47.714"/>
	<rect x="101.062" y="-228.298" display="inline" fill="#76A2FA" width="60.976" height="47.714"/>
	<rect x="179.382" y="-228.298" display="inline" fill="#0038A6" width="60.976" height="47.714"/>
	<text transform="matrix(1 0 0 1 84.0054 -153.5234)" display="inline" font-family="'MyriadPro-Regular'" font-size="12">Color safe for the web</text>
	
		<rect x="11.909" y="-237.052" display="inline" fill="none" stroke="#000000" stroke-width="0.25" width="240.388" height="92.353"/>
	<rect x="314.567" y="-228.298" display="inline" fill="#003C6F" width="60.975" height="47.714"/>
	<rect x="395.044" y="-228.298" display="inline" fill="#609FDA" width="60.975" height="47.714"/>
	<rect x="473.364" y="-228.298" display="inline" fill="#005DAA" width="60.975" height="47.714"/>
	<text transform="matrix(1 0 0 1 377.9873 -153.5234)" display="inline" font-family="'MyriadPro-Regular'" font-size="12">Color safe for the web</text>
	
		<rect x="305.891" y="-237.052" display="inline" fill="none" stroke="#000000" stroke-width="0.25" width="240.387" height="92.353"/>
	<rect x="314.567" y="-96.298" display="inline" fill="#003562" width="60.975" height="47.714"/>
	<rect x="395.044" y="-96.298" display="inline" fill="#71BBF8" width="60.975" height="47.714"/>
	<rect x="473.364" y="-96.298" display="inline" fill="#005DAA" width="60.975" height="47.714"/>
	<text transform="matrix(1 0 0 1 377.9873 -21.5234)" display="inline" font-family="'MyriadPro-Regular'" font-size="12">Color safe for the web</text>
	
		<rect x="305.891" y="-105.052" display="inline" fill="none" stroke="#000000" stroke-width="0.25" width="240.387" height="92.353"/>
	<rect x="114.102" y="139.069" display="inline" fill="#003562" width="138.919" height="108.705"/>
	<rect x="248.528" y="139.069" display="inline" fill="#71BBF8" width="138.917" height="108.705"/>
	<rect x="381.391" y="139.069" display="inline" fill="#005DAA" width="138.917" height="108.705"/>
	<rect x="-225.929" y="170.752" display="inline" fill="#005DAA" width="154" height="148.195"/>
	<rect x="-225.929" y="293.053" display="inline" fill="#005DAA" width="154" height="148.195"/>
	<text transform="matrix(1 0 0 1 156.0996 280.752)" display="inline" font-family="'MyriadPro-Regular'" font-size="12">#003562</text>
	<rect x="516.455" y="139.069" display="inline" fill="#003562" width="138.918" height="108.705"/>
	<text transform="matrix(1 0 0 1 558.4531 280.752)" display="inline" font-family="'MyriadPro-Regular'" font-size="12">#003562</text>
	<text transform="matrix(1 0 0 1 285.0547 280.752)" display="inline" font-family="'MyriadPro-Regular'" font-size="12">#71BBF8</text>
	<text transform="matrix(1 0 0 1 420.0098 280.752)" display="inline" font-family="'MyriadPro-Regular'" font-size="12">#005DAA</text>
	<rect x="114.102" y="311.735" display="inline" fill="#002B4E" width="138.919" height="108.705"/>
	<rect x="248.528" y="311.735" display="inline" fill="#71BBF8" width="138.917" height="108.705"/>
	<rect x="381.391" y="311.735" display="inline" fill="#005DAA" width="138.917" height="108.705"/>
	<text transform="matrix(1 0 0 1 156.0996 453.4189)" display="inline" font-family="'MyriadPro-Regular'" font-size="12">#002B4E</text>
	<rect x="516.455" y="311.735" display="inline" fill="#002B4E" width="138.918" height="108.705"/>
	<text transform="matrix(1 0 0 1 558.4531 453.4189)" display="inline" font-family="'MyriadPro-Regular'" font-size="12">#002B4E</text>
	<text transform="matrix(1 0 0 1 285.0547 453.4189)" display="inline" font-family="'MyriadPro-Regular'" font-size="12">#71BBF8</text>
	<text transform="matrix(1 0 0 1 420.0098 453.4189)" display="inline" font-family="'MyriadPro-Regular'" font-size="12">#005DAA</text>
	<rect x="60.108" y="293.441" display="inline" fill="none" stroke="#F7931E" width="620.969" height="192.641"/>
</g>
<g id="Logo" display="none">
	<polygon display="inline" fill="#E6E6E6" points="438.368,223.007 401.531,250.151 438.368,277.293 396.442,258.967 
		391.351,304.439 391.32,304.156 391.32,304.7 391.321,304.7 391.32,304.7 391.32,364.013 438.584,364.013 438.584,222.87 
		438.279,223.046 	"/>
	<polyline display="inline" fill="#E6E6E6" points="391.068,303.546 268.833,232.974 292.465,192.042 416.205,263.483 	"/>
	<polyline display="inline" fill="#E6E6E6" points="343.831,221.699 466.038,151.11 489.669,192.042 365.929,263.483 	"/>
	<g display="inline">
		<polygon fill="#005DAA" points="344.261,276.007 381.098,248.862 344.261,221.72 386.184,240.047 391.276,194.574 
			391.307,194.857 391.307,194.314 391.305,194.314 391.307,194.314 391.307,135 344.043,135 344.043,276.145 344.349,275.968 		"/>
	</g>
	<g display="inline">
		<polygon fill="#002B4E" points="438.289,276.007 396.366,257.678 391.276,303.15 386.185,257.678 344.349,275.968 
			344.043,276.144 344.043,276.146 344.043,276.144 292.704,305.786 316.336,346.717 438.568,276.144 438.145,275.899 		"/>
	</g>
	<g display="inline">
		<polygon fill="#71BBF8" points="513.544,264.855 391.308,194.314 391.308,194.858 396.366,240.047 438.289,221.72 
			401.454,248.862 438.145,275.899 438.568,276.144 438.57,276.144 438.568,276.144 489.909,305.786 		"/>
	</g>
	<polygon display="inline" fill="#FFFFFF" stroke="#FFFFFF" stroke-width="0.9013" points="385.968,257.813 344.043,276.144 
		380.877,249 344.042,221.856 385.968,240.182 391.058,194.714 396.146,240.185 438.071,221.856 401.236,248.998 438.071,276.144 
		396.146,257.816 391.056,303.288 	"/>
	<g display="inline">
		<path d="M238.03,445.563h30.102l-18.24-46.887l-30.997,79.339H208.04l37.375-93.998h9.064l37.599,93.998h-10.966l-8.952-22.381
			h-38.159L238.03,445.563z"/>
		<path d="M308.864,494.8h-10.071v-63.784c0-12.682,6.34-19.023,19.023-19.023h22.38c12.682,0,19.023,6.342,19.023,19.023v27.976
			c0,12.684-6.342,19.023-19.023,19.023h-24.619v-10.071h24.619c5.968,0,8.952-2.983,8.952-8.952v-27.976
			c0-5.968-2.984-8.952-8.952-8.952h-22.38c-5.969,0-8.952,2.984-8.952,8.952V494.8z"/>
		<path d="M370.41,431.016c0-12.682,6.34-19.023,19.023-19.023h22.38c12.682,0,19.023,6.342,19.023,19.023v28.199
			c0,12.533-6.342,18.8-19.023,18.8h-22.38c-12.684,0-19.023-6.34-19.023-19.023V431.016z M411.813,467.943
			c5.969,0,8.953-2.909,8.953-8.729v-28.199c0-5.968-2.984-8.952-8.953-8.952h-22.38c-5.969,0-8.952,2.984-8.952,8.952v27.976
			c0,5.969,2.983,8.952,8.952,8.952H411.813z"/>
		<path d="M483.432,490.323c5.968,0,8.952-2.984,8.952-8.952v-50.355c0-5.968-2.984-8.952-8.952-8.952h-22.38
			c-5.97,0-8.953,2.984-8.953,8.952v27.976c0,5.969,2.983,8.952,8.953,8.952h24.618v10.071h-24.618
			c-12.684,0-19.023-6.34-19.023-19.023v-27.976c0-12.682,6.34-19.023,19.023-19.023h22.38c12.682,0,19.023,6.342,19.023,19.023
			v50.355c0,12.682-6.342,19.023-19.023,19.023h-24.618v-10.071H483.432z"/>
		<path d="M513.646,411.992h10.07v46.999c0,5.969,2.983,8.952,8.953,8.952h31.332v-55.951h10.071v69.379
			c0,12.682-6.342,19.023-19.023,19.023H208.04v-10.071h347.009c5.968,0,8.952-2.984,8.952-8.952v-3.356h-31.332
			c-12.684,0-19.023-6.34-19.023-19.023V411.992z"/>
	</g>
	<text transform="matrix(1 0 0 1 -410.7324 574.9229)" display="inline" font-family="'Zekton'" font-size="111.9025">Apogy</text>
	<rect y="556" display="inline" fill="#71BBF8" width="45" height="45"/>
	<rect x="45" y="556" display="inline" fill="#005DAA" width="45" height="45"/>
	<rect x="90" y="556" display="inline" fill="#002B4E" width="45" height="45"/>
	<rect y="511" display="inline" fill="#66CCFF" width="45" height="45"/>
	<rect x="45" y="511" display="inline" fill="#003399" width="45" height="45"/>
	<rect x="90" y="511" display="inline" fill="#002B4E" width="45" height="45"/>
</g>
<g id="Logo_copy_2">
	<polygon fill="#E6E6E6" points="438.368,223.007 401.531,250.151 438.368,277.293 396.442,258.967 391.351,304.439 391.32,304.156 
		391.32,304.7 391.321,304.7 391.32,304.7 391.32,364.013 438.584,364.013 438.584,222.87 438.279,223.046 	"/>
	<polyline fill="#E6E6E6" points="391.068,303.546 268.833,232.974 292.465,192.042 416.205,263.483 	"/>
	<polyline fill="#E6E6E6" points="343.831,221.699 466.038,151.11 489.669,192.042 365.929,263.483 	"/>
	<g>
		<polygon fill="#005DAA" points="344.261,276.007 381.098,248.862 344.261,221.72 386.184,240.047 391.276,194.574 
			391.307,194.857 391.307,194.314 391.305,194.314 391.307,194.314 391.307,135 344.043,135 344.043,276.145 344.349,275.968 		"/>
	</g>
	<g>
		<polygon fill="#002B4E" points="438.289,276.007 396.366,257.678 391.276,303.15 386.185,257.678 344.349,275.968 
			344.043,276.144 344.043,276.146 344.043,276.144 292.704,305.786 316.336,346.717 438.568,276.144 438.145,275.899 		"/>
	</g>
	<g>
		<polygon fill="#71BBF8" points="513.544,264.855 391.308,194.314 391.308,194.858 396.366,240.047 438.289,221.72 
			401.454,248.862 438.145,275.899 438.568,276.144 438.57,276.144 438.568,276.144 489.909,305.786 		"/>
	</g>
	<polygon fill="#FFFFFF" stroke="#FFFFFF" stroke-width="0.9013" points="385.968,257.813 344.043,276.144 380.877,249 
		344.042,221.856 385.968,240.182 391.058,194.714 396.146,240.185 438.071,221.856 401.236,248.998 438.071,276.144 
		396.146,257.816 391.056,303.288 	"/>
	<g>
		<path d="M238.03,445.563h30.102l-18.24-46.887l-30.997,79.339H208.04l37.375-93.998h9.064l37.599,93.998h-10.966l-8.952-22.381
			h-38.159L238.03,445.563z"/>
		<path d="M308.864,494.8h-10.071v-63.784c0-12.682,6.34-19.023,19.023-19.023h22.38c12.682,0,19.023,6.342,19.023,19.023v27.976
			c0,12.684-6.342,19.023-19.023,19.023h-24.619v-10.071h24.619c5.968,0,8.952-2.983,8.952-8.952v-27.976
			c0-5.968-2.984-8.952-8.952-8.952h-22.38c-5.969,0-8.952,2.984-8.952,8.952V494.8z"/>
		<path d="M370.41,431.016c0-12.682,6.34-19.023,19.023-19.023h22.38c12.682,0,19.023,6.342,19.023,19.023v28.199
			c0,12.533-6.342,18.8-19.023,18.8h-22.38c-12.684,0-19.023-6.34-19.023-19.023V431.016z M411.813,467.943
			c5.969,0,8.953-2.909,8.953-8.729v-28.199c0-5.968-2.984-8.952-8.953-8.952h-22.38c-5.969,0-8.952,2.984-8.952,8.952v27.976
			c0,5.969,2.983,8.952,8.952,8.952H411.813z"/>
		<path d="M483.432,490.323c5.968,0,8.952-2.984,8.952-8.952v-50.355c0-5.968-2.984-8.952-8.952-8.952h-22.38
			c-5.97,0-8.953,2.984-8.953,8.952v27.976c0,5.969,2.983,8.952,8.953,8.952h24.618v10.071h-24.618
			c-12.684,0-19.023-6.34-19.023-19.023v-27.976c0-12.682,6.34-19.023,19.023-19.023h22.38c12.682,0,19.023,6.342,19.023,19.023
			v50.355c0,12.682-6.342,19.023-19.023,19.023h-24.618v-10.071H483.432z"/>
		<path d="M513.646,411.992h10.07v46.999c0,5.969,2.983,8.952,8.953,8.952h31.332v-55.951h10.071v69.379
			c0,12.682-6.342,19.023-19.023,19.023H208.04v-10.071h347.009c5.968,0,8.952-2.984,8.952-8.952v-3.356h-31.332
			c-12.684,0-19.023-6.34-19.023-19.023V411.992z"/>
	</g>
</g>
<g id="Logo_copy" display="none">
	<g display="inline">
		<path d="M207.553,418.477c10.037,0,15.056,5.024,15.056,15.068v13.475c0,9.927-5.021,14.888-15.062,14.888h-37.222v-7.968h37.222
			c4.726,0,7.089-2.305,7.089-6.92v-13.478c0-4.728-2.362-7.091-7.084-7.091h-26.57c-10.038,0-15.056-5.023-15.056-15.059v-8.86
			c0-10.04,5.021-15.062,15.061-15.062h37.224v7.972h-37.224c-4.726,0-7.089,2.361-7.089,7.09v8.86c0,4.724,2.362,7.084,7.085,7.084
			H207.553z"/>
		<path d="M231.506,409.628h7.972v37.222c0,4.723,2.361,7.09,7.086,7.09h24.802v-44.312h7.971v54.97
			c0,10.046-5.021,15.072-15.062,15.072h-19.497v-7.976h19.497c4.728,0,7.091-2.37,7.091-7.113v-2.674h-24.802
			c-10.039,0-15.058-5.017-15.058-15.065V409.628z"/>
		<path d="M314.833,417.6h-18.637v44.308h-7.973v-52.279h46.115c10.05,0,15.076,5.019,15.076,15.063v37.217h-7.971V424.69
			c0-4.73-2.368-7.091-7.102-7.091h-11.537v44.308h-7.971V417.6z"/>
		<path d="M366.207,475.217h-7.972v-50.521c0-10.049,5.02-15.067,15.058-15.067h17.714c10.038,0,15.059,5.019,15.059,15.063v22.151
			c0,10.049-5.022,15.065-15.063,15.065h-19.497v-7.968h19.497c4.728,0,7.09-2.367,7.09-7.09V424.69c0-4.73-2.362-7.091-7.086-7.091
			h-17.714c-4.725,0-7.086,2.36-7.086,7.091V475.217z"/>
		<path d="M462.781,461.907h-7.969V424.69c0-4.73-2.363-7.091-7.087-7.091h-24.801v44.308h-7.973v-74.437h7.973v22.157h24.801
			c10.037,0,15.056,5.019,15.056,15.063V461.907z"/>
		<path d="M471.671,424.69c0-10.044,5.018-15.063,15.057-15.063h17.717c10.037,0,15.055,5.019,15.055,15.063v22.329
			c0,9.927-5.018,14.888-15.055,14.888h-17.717c-10.039,0-15.057-5.017-15.057-15.065V424.69z M504.444,453.939
			c4.721,0,7.084-2.305,7.084-6.915V424.69c0-4.73-2.363-7.091-7.084-7.091h-17.717c-4.724,0-7.084,2.36-7.084,7.091v22.159
			c0,4.723,2.36,7.09,7.084,7.09H504.444z"/>
		<path d="M576.218,461.907h-7.973V424.69c0-4.73-2.36-7.091-7.084-7.091h-24.802v44.308h-7.969v-52.279h32.771
			c10.039,0,15.057,5.019,15.057,15.063V461.907z"/>
		<path d="M585.106,409.628h7.971v37.222c0,4.723,2.362,7.09,7.088,7.09h24.799v-44.312h7.973v54.97
			c0,10.046-5.022,15.072-15.062,15.072H169.266v-7.976h448.609c4.727,0,7.089-2.37,7.089-7.113v-2.674h-24.799
			c-10.038,0-15.059-5.017-15.059-15.065V409.628z"/>
	</g>
	<g display="inline">
		<polygon fill="#F2F2F2" points="438.368,223.007 401.531,250.151 438.368,277.293 396.442,258.967 391.351,304.439 
			391.32,304.156 391.32,304.7 391.321,304.7 391.32,304.7 391.32,364.013 438.584,364.013 438.584,222.87 438.279,223.046 		"/>
		<polyline fill="#F2F2F2" points="391.068,303.546 268.833,232.974 292.465,192.042 416.205,263.483 		"/>
		<polyline fill="#F2F2F2" points="343.831,221.699 466.038,151.11 489.669,192.042 365.929,263.483 		"/>
		<g>
			<polygon fill="#005DAA" points="344.261,276.007 381.098,248.862 344.261,221.72 386.184,240.047 391.276,194.574 
				391.307,194.857 391.307,194.314 391.305,194.314 391.307,194.314 391.307,135 344.043,135 344.043,276.145 344.349,275.968 			
				"/>
		</g>
		<g>
			<polygon fill="#002B4E" points="438.289,276.007 396.366,257.678 391.276,303.15 386.185,257.678 344.349,275.968 
				344.043,276.144 344.043,276.146 344.043,276.144 292.704,305.786 316.336,346.717 438.568,276.144 438.145,275.899 			"/>
		</g>
		<g>
			<polygon fill="#71BBF8" points="513.544,264.855 391.308,194.314 391.308,194.858 396.366,240.047 438.289,221.72 
				401.454,248.862 438.145,275.899 438.568,276.144 438.57,276.144 438.568,276.144 489.909,305.786 			"/>
		</g>
		<polygon fill="#FFFFFF" stroke="#FFFFFF" stroke-width="0.9013" points="385.941,257.798 343.962,276.004 380.877,248.97 
			344.122,221.716 385.994,240.167 391.219,194.714 396.173,240.2 438.151,221.996 401.236,249.028 437.99,276.283 396.12,257.831 
			390.895,303.288 		"/>
	</g>
</g>
<g id="trajet_anim" display="none">
	<path display="inline" fill="none" stroke="#71BBF8" stroke-width="5" d="M358.234,836.435
		c-528.259-275.567-341.697-878.956,0-652.467"/>
	<path display="inline" fill="none" stroke="#71BBF8" stroke-width="5" d="M915.457-29.917
		c25.482,595.269-590.349,735.397-565.052,326.234"/>
	<path display="inline" fill="none" stroke="#71BBF8" stroke-width="5" d="M-88.448-55.332
		C414.33-375.034,843.6,88.227,476.605,270.901"/>
</g>
<g id="Header" display="none">
	<rect display="inline" width="792" height="81.029"/>
	<rect y="531" display="inline" width="792" height="81"/>
	<g display="inline">
		<circle fill="#FFFFFF" stroke="#FFFFFF" stroke-width="2.0625" cx="717.241" cy="48.835" r="20.002"/>
		<circle fill="#0060A9" cx="717.241" cy="48.835" r="20.002"/>
		<path fill="#FFFFFF" d="M706.153,58.81c-0.24-0.229-0.558-0.424-0.955-0.424c-0.524,0-1.02,0.363-1.102,0.82
			c-0.085,0.462,0.306,0.819,0.831,0.819c0.403,0,0.751-0.15,1.076-0.391l-0.337,1.576c-0.303,0.118-0.966,0.168-1.279,0.168
			c-1.377,0-2.284-0.934-2.067-2.134c0.223-1.228,1.51-2.212,2.926-2.212c0.396,0,0.795,0.062,1.146,0.173L706.153,58.81z
			 M706.945,59.851l0.08,0.062c0.279,0.211,0.632,0.384,1.042,0.384c0.177,0,0.46-0.062,0.495-0.25
			c0.035-0.189-0.19-0.207-0.348-0.234l-0.348-0.056c-0.678-0.106-1.198-0.457-1.078-1.114c0.185-1,1.349-1.56,2.409-1.56
			c0.56,0,1.052,0.118,1.486,0.37l-0.68,1.079c-0.272-0.178-0.593-0.318-0.976-0.318c-0.155,0-0.386,0.05-0.417,0.223
			c-0.029,0.156,0.182,0.178,0.313,0.207l0.389,0.078c0.728,0.145,1.21,0.49,1.079,1.203c-0.186,1.006-1.343,1.504-2.396,1.504
			c-0.618,0-1.308-0.146-1.816-0.386L706.945,59.851z M712.879,59.836l0.558-1.286h0.063c0,0.179-0.001,0.363,0.018,0.542
			l0.07,0.744H712.879z M712.381,60.838h1.334l0.065,0.526h1.869l-0.964-4.218h-1.954l-2.457,4.218h1.869L712.381,60.838z"/>
		<path fill="#FFFFFF" d="M732.636,58.81c-0.24-0.229-0.558-0.424-0.955-0.424c-0.525,0-1.021,0.363-1.104,0.82
			c-0.083,0.462,0.307,0.819,0.832,0.819c0.403,0,0.751-0.15,1.076-0.391l-0.336,1.576c-0.304,0.118-0.967,0.168-1.28,0.168
			c-1.377,0-2.284-0.934-2.066-2.134c0.223-1.228,1.509-2.212,2.924-2.212c0.397,0,0.797,0.062,1.147,0.173L732.636,58.81z
			 M724.823,59.851l0.08,0.062c0.28,0.211,0.633,0.384,1.043,0.384c0.176,0,0.46-0.062,0.495-0.25
			c0.034-0.189-0.19-0.207-0.348-0.234l-0.349-0.056c-0.677-0.106-1.197-0.457-1.077-1.114c0.184-1,1.349-1.56,2.409-1.56
			c0.56,0,1.052,0.118,1.485,0.37l-0.68,1.079c-0.272-0.178-0.592-0.318-0.975-0.318c-0.155,0-0.387,0.05-0.419,0.223
			c-0.027,0.156,0.184,0.178,0.313,0.207l0.389,0.078c0.728,0.145,1.211,0.49,1.08,1.203c-0.186,1.006-1.344,1.504-2.396,1.504
			c-0.618,0-1.309-0.146-1.816-0.386L724.823,59.851z M721.074,59.836l0.556-1.286h0.065c-0.001,0.179-0.002,0.363,0.017,0.542
			l0.071,0.744H721.074z M720.575,60.838h1.335l0.064,0.526h1.869l-0.965-4.218h-1.953l-2.457,4.218h1.869L720.575,60.838z"/>
		<polygon fill="#FFFFFF" points="717.535,56.845 717.499,54.967 719.414,55.335 719.175,54.47 720.961,52.886 720.519,52.628 
			720.887,51.321 719.782,51.542 719.469,50.842 718.438,51.91 718.897,49.608 717.996,50.161 717.241,48.632 716.486,50.161 
			715.583,49.608 716.044,51.91 715.013,50.842 714.699,51.542 713.595,51.321 713.963,52.628 713.521,52.886 715.308,54.47 
			715.068,55.335 716.983,54.967 716.945,56.845 		"/>
		<path fill="#EF3E33" d="M717.297,56.588l-0.031-1.603c0-0.294,0.095-0.313,0.335-0.267L719,55.004l-0.092-0.311
			c-0.074-0.251-0.047-0.371,0.101-0.481l1.437-1.252c-0.285-0.064-0.313-0.24-0.239-0.497l0.239-0.737l-0.497,0.11
			c-0.286,0.064-0.396,0.009-0.497-0.221l-0.093-0.258l-0.644,0.699c-0.369,0.387-0.626,0.074-0.554-0.257l0.296-1.584
			c-0.442,0.295-0.664,0.267-0.792,0.019l-0.424-0.884l-0.424,0.884c-0.129,0.249-0.35,0.276-0.792-0.019l0.295,1.584
			c0.074,0.332-0.184,0.645-0.552,0.257l-0.646-0.699l-0.092,0.258c-0.102,0.23-0.212,0.285-0.498,0.221l-0.496-0.11l0.239,0.737
			c0.073,0.257,0.046,0.433-0.239,0.497l1.436,1.252c0.147,0.111,0.176,0.23,0.102,0.481l-0.092,0.311l1.399-0.285
			c0.239-0.046,0.333-0.028,0.333,0.267l-0.027,1.603H717.297z"/>
		<path fill="none" stroke="#231F20" stroke-width="0.0147" d="M717.131,56.588"/>
		<path fill="#FFFFFF" d="M722.34,46.395l7.719-0.636l-9.649-0.307l5.475-4.002l-7.219,3.953l-0.319,0.024l0.369-1.694l-0.774,1.359
			l-0.325-6.748c1.765-1.083,3.184-1.536,4.192-1.536c0.863,0,1.831,0.177,2.597,2.104c-0.024,0.034-0.045,0.071-0.061,0.11
			c-0.508,0.029-0.87,0.102-0.87,0.188s0.362,0.158,0.87,0.188c0.053,0.136,0.16,0.245,0.297,0.297
			c0.029,0.508,0.102,0.869,0.188,0.869s0.159-0.361,0.188-0.869c0.136-0.053,0.244-0.161,0.298-0.297
			c0.508-0.029,0.869-0.102,0.869-0.188s-0.361-0.159-0.869-0.188c-0.054-0.136-0.162-0.244-0.298-0.297
			c-0.028-0.508-0.102-0.869-0.188-0.869c-0.057,0-0.107,0.158-0.144,0.412c-0.926-2.563-2.636-2.454-3.061-2.454
			c-0.42,0-1.87,0.034-4.065,1.362l-0.317-6.482l-0.338,6.902c-2.062,1.369-4.025,3.051-6.048,5.089l-2.258-1.236l2.021,1.477
			c-0.828,0.845-1.668,1.749-2.528,2.716l-3.666,0.117l3.32,0.273c-1.323,1.502-2.698,3.15-4.168,4.957l0.212-0.145
			c-1.432,1.234-2.69,2.659-3.735,4.232c4.665-4.714,10.337-7.974,17.188-7.974c6.927,0,12.716,3.066,17.356,7.799
			C731.658,50.477,727.356,47.56,722.34,46.395z M707.308,48.392c0.69-0.739,1.35-1.485,1.999-2.23l3.049,0.251
			C710.572,46.851,708.878,47.522,707.308,48.392z M709.806,45.588c0.581-0.667,1.157-1.329,1.747-1.978l2.521,1.842L709.806,45.588
			z M716.541,45.092l-0.772-1.359l0.368,1.694l-0.32-0.024l-3.933-2.154c1.479-1.6,3.052-3.111,4.958-4.404L716.541,45.092z
			 M712.744,32.023c-0.053,0.143-0.165,0.256-0.309,0.309c-0.033,0.343-0.101,0.578-0.179,0.578c-0.077,0-0.145-0.235-0.178-0.577
			c-0.144-0.052-0.258-0.166-0.31-0.309c-0.342-0.033-0.576-0.101-0.576-0.179c0-0.078,0.234-0.145,0.576-0.179
			c0.052-0.143,0.166-0.256,0.31-0.309c0.033-0.342,0.101-0.576,0.178-0.576c0.078,0,0.146,0.234,0.179,0.576
			c0.144,0.053,0.256,0.166,0.309,0.309c0.342,0.034,0.576,0.101,0.576,0.179C713.32,31.923,713.086,31.99,712.744,32.023z"/>
	</g>
	<g display="inline">
		<g>
			<polygon fill="#FD1813" points="726.56,558.359 726.56,551.997 729.658,551.997 729.658,558.359 726.56,558.359 			"/>
			<polygon fill="#FD1813" points="735.802,558.359 735.802,551.997 739.131,551.997 739.131,558.359 735.802,558.359 			"/>
			<polygon fill="#FD1813" points="732.813,557.746 732.659,557.746 732.659,556.553 731.477,556.837 731.651,556.268 
				730.546,555.349 730.863,555.096 730.6,554.494 731.247,554.538 731.378,554.177 732.111,554.626 731.805,553.256 
				732.353,553.454 732.834,552.644 732.834,552.644 732.834,552.644 733.306,553.454 733.863,553.256 733.557,554.626 
				734.28,554.177 734.411,554.548 735.057,554.494 734.794,555.107 735.112,555.349 734.006,556.268 734.181,556.837 
				732.998,556.553 732.998,557.746 732.845,557.746 732.813,557.746 			"/>
		</g>
		<path fill="#FFFFFF" d="M671.288,558.437c-0.109-1.741-0.394-6.023-0.394-6.023c-0.033-0.481-0.646-0.941-0.997,0.263
			c-0.416,1.336-2.935-2.464-9.33-0.153c-1.764,0.625-6.318,3.745-6.318,9.747c0,8.202,6.844,10.524,9.461,10.524
			c3.537,0,7.338-1.314,8.313-6.166c0.229-1.139-0.646-1.106-0.964,0.109c-0.58,2.179-2.398,4.862-6.198,4.862
			c-2.464,0-6.889-1.412-6.889-8.674c0-5.989,3.121-10.195,6.506-10.195c2.485,0,4.708,1.117,5.804,5.399
			C670.609,559.433,671.354,559.335,671.288,558.437L671.288,558.437L671.288,558.437z"/>
		<path fill="#FFFFFF" d="M677.706,566.058c-1.14,0.69-3.034,1.862-3.022,3.352c0.011,1.161,1.019,2.18,2.409,2.005
			c1.664-0.373,2.048-1.391,2.048-2.684c0,0.065,0-3.056,0-3.056c0.011-0.273-0.153-0.372-0.241-0.328
			C678.538,565.533,678.177,565.752,677.706,566.058L677.706,566.058l-0.361-0.919l0,0c1.773-0.405,1.697-1.457,1.697-1.741
			c0-0.548,0-1.314,0-1.479c0-2.18-2.76-2.573-3.724-0.789c-0.394,0.734-0.723,1.808-1.489,1.808c-0.865,0-1.577-0.592-1.325-1.49
			c0.898-3.099,6.166-2.475,7.546-1.905c1.313,0.537,2.059,1.841,2.059,2.957c0,1.26,0,7.863,0,7.863
			c0,0.427,0.591,1.752,2.234,0.613c0.24-0.219,0.602-0.241,0.404,0.384c-0.514,1.379-3.592,1.303-4.862,0.12
			c-0.164-0.197-0.612-0.515-1.303,0.164c-1.095,1.073-6.362,1.237-6.67-2.409c-0.142-1.588,1.052-3.274,3.231-3.646
			c0.361-0.055,1.905-0.361,2.201-0.449l0,0L677.706,566.058L677.706,566.058z"/>
		<path fill="#FFFFFF" d="M715.279,565.916c0,3.548,1.632,5.793,4.184,5.793c1.522,0,2.946-1.5,2.946-3.065l0,0v-5.038l0,0
			c0-2.508-2.234-3.384-3.089-3.384C716.944,560.222,715.279,562.938,715.279,565.916L715.279,565.916l-2.901-0.022l0,0
			c0-1.784,0.952-5.354,4.435-6.188c3.362-0.81,4.742,0.428,5.06,0.734c0.131,0.143,0.613,0.438,0.613-0.427
			c0-0.198,0.011-4.349,0.011-4.545c0-1.501-1.248-2.968-2.376-2.968c-0.274,0.011-0.472-0.263-0.044-0.307l0,0l4.687-0.307l0,0
			c0.23-0.044,0.307,0.153,0.307,0.395l0,0v15.211l0,0c0,2.19,0.537,3.505,1.512,3.953c0.153,0.076,0.219,0.132,0.405,0.132
			c0.208,0.011,0.208,0.251-0.011,0.284l0,0l-3.865,0.526l0,0c-0.197,0.044-0.428-0.022-0.46-0.461
			c-0.033-0.448-0.1-0.941-0.932-0.186c-1.04,0.953-5.005,0.92-6.757-0.383c-1.752-1.293-2.584-2.946-2.584-5.466l0,0
			L715.279,565.916L715.279,565.916z"/>
		<path fill="#FFFFFF" d="M697.944,565.687c0,2.277,0,3.351,0,3.548c0,1.096,0.678,2.639,1.839,2.639
			c0.274,0,0.274,0.253-0.011,0.253c-0.307,0-5.618,0-5.738,0c-0.351,0-0.373-0.297,0-0.297c0.592,0,1.347-1.215,1.347-2.595
			c0-1.292,0-3.318,0-3.516l0,0v-2.617l0,0c0-1.479-1.336-2.661-2.825-2.661c-1.479,0-3.416,0.942-3.416,2.968
			c0,2.278,0,5.629,0,5.826c0,1.096,0.678,2.628,1.839,2.628c0.273,0,0.273,0.264-0.01,0.264c-0.308,0-5.662,0-5.771,0
			c-0.351,0-0.373-0.297,0-0.297c0.58,0,1.357-1.215,1.357-2.595c0-1.292,0-6.199,0-6.385c0-1.556-0.351-1.992-1.785-2.388
			c-0.395-0.131-0.329-0.295-0.022-0.372c0.012,0,3.144-0.471,3.144-0.471c0.46-0.066,1.183-0.317,1.183,0.92
			c0.033,0.482,0.493,0.537,1.084,0.044c0.296-0.22,1.237-1.052,2.793-1.052c2.354,0,4.994,0.416,4.994,3.352l0,0V565.687
			L697.944,565.687z"/>
		<path fill="#FFFFFF" d="M705.653,566.058c-1.139,0.69-3.022,1.862-3.012,3.352c0.011,1.161,1.019,2.18,2.398,2.005
			c1.665-0.373,2.048-1.391,2.048-2.684c0,0.065,0-3.056,0-3.056c0.022-0.273-0.153-0.372-0.23-0.328
			C706.485,565.533,706.135,565.752,705.653,566.058L705.653,566.058l-0.351-0.919l0,0c1.763-0.405,1.687-1.457,1.687-1.741
			c0-0.548,0-1.314,0-1.479c0-2.18-2.748-2.573-3.724-0.789c-0.394,0.734-0.722,1.808-1.489,1.808c-0.865,0-1.577-0.592-1.314-1.49
			c0.888-3.099,6.155-2.475,7.546-1.905c1.303,0.537,2.06,1.841,2.06,2.957c0,1.26,0,7.863,0,7.863c0,0.427,0.58,1.752,2.233,0.613
			c0.229-0.219,0.592-0.241,0.395,0.384c-0.515,1.379-3.593,1.303-4.863,0.12c-0.164-0.197-0.602-0.515-1.291,0.164
			c-1.107,1.073-6.374,1.237-6.681-2.409c-0.131-1.588,1.051-3.274,3.23-3.646c0.372-0.055,1.917-0.361,2.212-0.449l0,0
			L705.653,566.058L705.653,566.058z"/>
		<path fill="#FFFFFF" d="M732.944,566.058c-1.14,0.69-3.023,1.862-3.012,3.352c0.011,1.161,1.018,2.18,2.398,2.005
			c1.664-0.373,2.048-1.391,2.048-2.684c0,0.065,0-3.056,0-3.056c0.021-0.273-0.153-0.372-0.23-0.328
			C733.776,565.533,733.426,565.752,732.944,566.058L732.944,566.058l-0.352-0.919l0,0c1.774-0.405,1.688-1.457,1.688-1.741
			c0-0.548,0-1.314,0-1.479c0-2.18-2.749-2.573-3.724-0.789c-0.395,0.734-0.723,1.808-1.489,1.808c-0.865,0-1.577-0.592-1.314-1.49
			c0.898-3.099,6.154-2.475,7.545-1.905c1.304,0.537,2.059,1.841,2.059,2.957c0,1.26,0,7.863,0,7.863
			c0,0.427,0.581,1.752,2.234,0.613c0.23-0.219,0.592-0.241,0.395,0.384c-0.515,1.379-3.592,1.303-4.862,0.12
			c-0.153-0.197-0.603-0.515-1.292,0.164c-1.106,1.073-6.374,1.237-6.681-2.409c-0.131-1.588,1.052-3.274,3.23-3.646
			c0.373-0.055,1.917-0.361,2.212-0.449l0,0L732.944,566.058L732.944,566.058z"/>
	</g>
	<g display="inline">
		<g>
			<polygon fill="#FD1813" points="55.682,572.148 55.682,558.002 62.572,558.002 62.572,572.148 55.682,572.148 			"/>
			<polygon fill="#FD1813" points="76.232,572.148 76.232,558.002 83.633,558.002 83.633,572.148 76.232,572.148 			"/>
			<polygon fill="#FD1813" points="69.585,570.784 69.244,570.784 69.244,568.13 66.614,568.763 67.004,567.497 64.544,565.452 
				65.25,564.892 64.667,563.553 66.103,563.65 66.395,562.847 68.026,563.845 67.345,560.801 68.562,561.24 69.633,559.438 
				69.633,559.438 69.633,559.438 70.68,561.24 71.922,560.801 71.24,563.845 72.848,562.847 73.14,563.674 74.576,563.553 
				73.992,564.916 74.698,565.452 72.238,567.497 72.628,568.763 69.999,568.13 69.999,570.784 69.657,570.784 69.585,570.784 			
				"/>
		</g>
		<path fill="#FFFFFF" d="M95.275,558.884h0.017H95.3l0.907,2.604h-1.848L95.275,558.884z M92.41,563.895h1.093l0.568-1.603h2.416
			l0.568,1.603h1.136l-2.332-6.053h-1.127L92.41,563.895z"/>
		<path fill="#FFFFFF" d="M100.54,563.132c-0.805,0-1.153-0.729-1.153-1.45c0-0.729,0.297-1.526,1.153-1.526
			c0.839,0,1.179,0.695,1.179,1.45C101.718,562.352,101.396,563.132,100.54,563.132z M102.685,559.511h-0.966v0.603h-0.017
			c-0.246-0.492-0.746-0.721-1.297-0.721c-1.247,0-1.984,1.018-1.984,2.196c0,1.255,0.576,2.306,1.967,2.306
			c0.542,0,1.043-0.288,1.314-0.771h0.017v0.669c0,0.72-0.348,1.119-1.127,1.119c-0.492,0-0.933-0.094-1.051-0.645h-0.966
			c0.084,1.025,1.077,1.364,1.958,1.364c1.382,0,2.153-0.652,2.153-1.966V559.511z"/>
		<path fill="#FFFFFF" d="M104.414,561.317c0.025-0.652,0.483-1.162,1.153-1.162c0.653,0,1.068,0.552,1.102,1.162H104.414z
			 M107.636,561.953c0.161-1.314-0.687-2.561-2.069-2.561c-1.305,0-2.12,1.068-2.12,2.314c0,1.349,0.772,2.307,2.145,2.307
			c0.958,0,1.772-0.534,1.984-1.492h-0.916c-0.169,0.482-0.509,0.729-1.068,0.729c-0.805,0-1.178-0.611-1.178-1.298H107.636z"/>
		<path fill="#FFFFFF" d="M108.373,559.511h0.916v0.645l0.017,0.018c0.289-0.483,0.789-0.78,1.365-0.78
			c0.95,0,1.551,0.509,1.551,1.492v3.01h-0.966v-2.755c-0.017-0.688-0.289-0.984-0.856-0.984c-0.644,0-1.06,0.51-1.06,1.153v2.586
			h-0.967V559.511z"/>
		<path fill="#FFFFFF" d="M116.198,560.978c-0.076-0.533-0.466-0.822-1-0.822c-0.5,0-1.204,0.264-1.204,1.594
			c0,0.73,0.322,1.502,1.162,1.502c0.56,0,0.949-0.374,1.042-1.001h0.966c-0.178,1.136-0.881,1.764-2.009,1.764
			c-1.374,0-2.128-0.976-2.128-2.265c0-1.321,0.721-2.356,2.162-2.356c1.017,0,1.882,0.509,1.975,1.585H116.198z"/>
		<path fill="#FFFFFF" d="M118.708,561.317c0.026-0.652,0.483-1.162,1.153-1.162c0.653,0,1.068,0.552,1.102,1.162H118.708z
			 M121.929,561.953c0.161-1.314-0.687-2.561-2.068-2.561c-1.306,0-2.12,1.068-2.12,2.314c0,1.349,0.771,2.307,2.145,2.307
			c0.958,0,1.771-0.534,1.984-1.492h-0.916c-0.17,0.482-0.509,0.729-1.068,0.729c-0.806,0-1.179-0.611-1.179-1.298H121.929z"/>
		<path fill="#FFFFFF" d="M125.753,562.487c0.051,0.559,0.475,0.764,0.992,0.764c0.365,0,1-0.077,0.975-0.577
			c-0.025-0.509-0.729-0.568-1.433-0.729c-0.712-0.152-1.408-0.406-1.408-1.297c0-0.958,1.035-1.255,1.832-1.255
			c0.899,0,1.712,0.373,1.831,1.348h-1.009c-0.084-0.457-0.466-0.585-0.89-0.585c-0.28,0-0.797,0.068-0.797,0.45
			c0,0.475,0.712,0.542,1.424,0.703c0.704,0.161,1.416,0.416,1.416,1.28c0,1.043-1.051,1.425-1.958,1.425
			c-1.103,0-1.925-0.492-1.941-1.526H125.753z"/>
		<path fill="#FFFFFF" d="M132.823,561.707c0,0.764-0.33,1.544-1.212,1.544c-0.78,0-1.229-0.662-1.229-1.544
			c0-0.932,0.416-1.552,1.229-1.552C132.408,560.155,132.823,560.91,132.823,561.707z M129.449,565.514h0.966v-2.188h0.017
			c0.305,0.483,0.907,0.688,1.467,0.688c1.297,0,1.891-1.111,1.891-2.289c0-1.28-0.67-2.332-2.052-2.332
			c-0.56,0-1.085,0.212-1.356,0.712h-0.017v-0.594h-0.916V565.514z"/>
		<path fill="#FFFFFF" d="M137.308,562.42c0,0.609-0.661,0.831-1.085,0.831c-0.339,0-0.891-0.127-0.891-0.561
			c0-0.508,0.374-0.661,0.789-0.729c0.424-0.077,0.89-0.067,1.187-0.263V562.42z M138.274,560.665c0-0.925-0.898-1.272-1.754-1.272
			c-0.967,0-1.925,0.331-1.992,1.458h0.966c0.042-0.475,0.424-0.695,0.967-0.695c0.39,0,0.907,0.094,0.907,0.594
			c0,0.568-0.619,0.492-1.314,0.619c-0.813,0.094-1.687,0.271-1.687,1.365c0,0.855,0.712,1.28,1.5,1.28
			c0.517,0,1.136-0.161,1.518-0.534c0.076,0.398,0.356,0.534,0.746,0.534c0.161,0,0.466-0.06,0.611-0.11v-0.67
			c-0.102,0.018-0.178,0.018-0.237,0.018c-0.178,0-0.229-0.095-0.229-0.332V560.665z"/>
		<path fill="#FFFFFF" d="M138.876,559.511h0.729v-1.313h0.966v1.313h0.873v0.722h-0.873v2.339c0,0.399,0.034,0.603,0.466,0.603
			c0.135,0,0.271,0,0.407-0.033v0.745c-0.212,0.018-0.416,0.052-0.627,0.052c-1.009,0-1.195-0.391-1.212-1.119v-2.586h-0.729
			V559.511z"/>
		<path fill="#FFFFFF" d="M142.166,559.511h0.966v4.384h-0.966V559.511z M142.166,557.842h0.966v0.915h-0.966V557.842z"/>
		<path fill="#FFFFFF" d="M146.888,562.42c0,0.609-0.662,0.831-1.085,0.831c-0.339,0-0.89-0.127-0.89-0.561
			c0-0.508,0.373-0.661,0.789-0.729c0.424-0.077,0.89-0.067,1.187-0.263V562.42z M147.854,560.665c0-0.925-0.898-1.272-1.755-1.272
			c-0.966,0-1.924,0.331-1.992,1.458h0.966c0.042-0.475,0.424-0.695,0.967-0.695c0.39,0,0.907,0.094,0.907,0.594
			c0,0.568-0.619,0.492-1.314,0.619c-0.813,0.094-1.687,0.271-1.687,1.365c0,0.855,0.712,1.28,1.5,1.28
			c0.517,0,1.136-0.161,1.518-0.534c0.076,0.398,0.356,0.534,0.746,0.534c0.161,0,0.466-0.06,0.61-0.11v-0.67
			c-0.102,0.018-0.178,0.018-0.237,0.018c-0.178,0-0.229-0.095-0.229-0.332V560.665z"/>
		<path fill="#FFFFFF" d="M148.923,557.842h0.966v6.053h-0.966V557.842z"/>
		<path fill="#FFFFFF" d="M151.695,561.317c0.025-0.652,0.483-1.162,1.152-1.162c0.653,0,1.069,0.552,1.103,1.162H151.695z
			 M154.917,561.953c0.161-1.314-0.687-2.561-2.069-2.561c-1.305,0-2.12,1.068-2.12,2.314c0,1.349,0.771,2.307,2.146,2.307
			c0.958,0,1.771-0.534,1.983-1.492h-0.915c-0.169,0.482-0.509,0.729-1.068,0.729c-0.806,0-1.179-0.611-1.179-1.298H154.917z"/>
		<path fill="#FFFFFF" d="M95.937,569.103c-0.077-0.534-0.466-0.822-1-0.822c-0.5,0-1.204,0.264-1.204,1.594
			c0,0.729,0.322,1.501,1.161,1.501c0.56,0,0.95-0.373,1.043-1h0.966c-0.178,1.136-0.882,1.764-2.009,1.764
			c-1.374,0-2.128-0.976-2.128-2.265c0-1.322,0.721-2.356,2.162-2.356c1.017,0,1.882,0.509,1.975,1.585H95.937z"/>
		<path fill="#FFFFFF" d="M100.396,570.545c0,0.609-0.662,0.83-1.085,0.83c-0.339,0-0.89-0.127-0.89-0.56
			c0-0.508,0.373-0.661,0.789-0.729c0.424-0.076,0.89-0.067,1.187-0.263V570.545z M101.362,568.789c0-0.924-0.899-1.271-1.755-1.271
			c-0.967,0-1.925,0.331-1.992,1.458h0.966c0.042-0.475,0.424-0.695,0.966-0.695c0.39,0,0.907,0.094,0.907,0.593
			c0,0.569-0.619,0.493-1.314,0.62c-0.814,0.093-1.687,0.271-1.687,1.364c0,0.856,0.712,1.281,1.5,1.281
			c0.517,0,1.136-0.162,1.518-0.534c0.076,0.397,0.356,0.534,0.746,0.534c0.161,0,0.466-0.06,0.61-0.11v-0.67
			c-0.102,0.017-0.178,0.017-0.237,0.017c-0.178,0-0.229-0.094-0.229-0.331V568.789z"/>
		<path fill="#FFFFFF" d="M102.405,567.636h0.916v0.645l0.017,0.018c0.289-0.484,0.789-0.78,1.365-0.78
			c0.95,0,1.551,0.509,1.551,1.492v3.01h-0.966v-2.756c-0.017-0.687-0.289-0.983-0.856-0.983c-0.644,0-1.06,0.509-1.06,1.153v2.586
			h-0.967V567.636z"/>
		<path fill="#FFFFFF" d="M109.976,570.545c0,0.609-0.661,0.83-1.085,0.83c-0.339,0-0.89-0.127-0.89-0.56
			c0-0.508,0.373-0.661,0.789-0.729c0.423-0.076,0.89-0.067,1.187-0.263V570.545z M110.942,568.789c0-0.924-0.899-1.271-1.755-1.271
			c-0.967,0-1.925,0.331-1.993,1.458h0.967c0.042-0.475,0.424-0.695,0.966-0.695c0.39,0,0.907,0.094,0.907,0.593
			c0,0.569-0.619,0.493-1.314,0.62c-0.814,0.093-1.688,0.271-1.688,1.364c0,0.856,0.712,1.281,1.5,1.281
			c0.517,0,1.137-0.162,1.518-0.534c0.077,0.397,0.356,0.534,0.746,0.534c0.161,0,0.467-0.06,0.611-0.11v-0.67
			c-0.102,0.017-0.178,0.017-0.238,0.017c-0.178,0-0.229-0.094-0.229-0.331V568.789z"/>
		<path fill="#FFFFFF" d="M112.74,569.874c0-0.788,0.322-1.594,1.229-1.594c0.746,0,1.212,0.577,1.212,1.543
			c0,0.764-0.365,1.552-1.229,1.552C113.112,571.375,112.74,570.629,112.74,569.874z M116.114,565.966h-0.966v2.238h-0.017
			c-0.297-0.482-0.907-0.687-1.458-0.687c-0.958,0-1.899,0.695-1.899,2.28c0,1.313,0.67,2.341,2.052,2.341
			c0.551,0,1.102-0.213,1.356-0.713h0.017v0.594h0.916V565.966z"/>
		<path fill="#FFFFFF" d="M117.19,567.636h0.966v4.384h-0.966V567.636z M117.19,565.966h0.966v0.916h-0.966V565.966z"/>
		<path fill="#FFFFFF" d="M119.962,569.442c0.025-0.653,0.483-1.162,1.153-1.162c0.652,0,1.068,0.551,1.102,1.162H119.962z
			 M123.184,570.078c0.161-1.314-0.687-2.561-2.068-2.561c-1.306,0-2.12,1.068-2.12,2.314c0,1.348,0.771,2.307,2.145,2.307
			c0.958,0,1.772-0.534,1.983-1.493h-0.916c-0.169,0.483-0.508,0.729-1.068,0.729c-0.806,0-1.179-0.61-1.179-1.297H123.184z"/>
		<path fill="#FFFFFF" d="M123.921,567.636h0.916v0.645l0.017,0.018c0.288-0.484,0.788-0.78,1.365-0.78
			c0.95,0,1.551,0.509,1.551,1.492v3.01h-0.966v-2.756c-0.017-0.687-0.288-0.983-0.856-0.983c-0.644,0-1.06,0.509-1.06,1.153v2.586
			h-0.967V567.636z"/>
		<path fill="#FFFFFF" d="M128.788,567.636h0.916v0.645l0.017,0.018c0.288-0.484,0.789-0.78,1.365-0.78
			c0.949,0,1.551,0.509,1.551,1.492v3.01h-0.966v-2.756c-0.017-0.687-0.288-0.983-0.856-0.983c-0.645,0-1.06,0.509-1.06,1.153v2.586
			h-0.966V567.636z"/>
		<path fill="#FFFFFF" d="M134.409,569.442c0.025-0.653,0.483-1.162,1.153-1.162c0.652,0,1.068,0.551,1.102,1.162H134.409z
			 M137.63,570.078c0.161-1.314-0.687-2.561-2.068-2.561c-1.306,0-2.12,1.068-2.12,2.314c0,1.348,0.771,2.307,2.145,2.307
			c0.958,0,1.771-0.534,1.983-1.493h-0.916c-0.169,0.483-0.508,0.729-1.068,0.729c-0.806,0-1.179-0.61-1.179-1.297H137.63z"/>
		<path fill="#FFFFFF" d="M165.199,559.766c-0.178-0.694-0.626-1.204-1.508-1.204c-1.297,0-1.84,1.145-1.84,2.306
			c0,1.162,0.543,2.307,1.84,2.307c0.941,0,1.458-0.703,1.542-1.585h1.034c-0.085,1.449-1.11,2.449-2.577,2.449
			c-1.815,0-2.9-1.44-2.9-3.171c0-1.729,1.085-3.17,2.9-3.17c1.364,0.008,2.441,0.763,2.568,2.068H165.199z"/>
		<path fill="#FFFFFF" d="M169.803,562.42c0,0.609-0.662,0.831-1.085,0.831c-0.34,0-0.89-0.127-0.89-0.561
			c0-0.508,0.373-0.661,0.788-0.729c0.424-0.077,0.891-0.067,1.188-0.263V562.42z M170.77,560.665c0-0.925-0.899-1.272-1.755-1.272
			c-0.966,0-1.925,0.331-1.993,1.458h0.967c0.042-0.475,0.424-0.695,0.966-0.695c0.39,0,0.907,0.094,0.907,0.594
			c0,0.568-0.619,0.492-1.314,0.619c-0.814,0.094-1.687,0.271-1.687,1.365c0,0.855,0.712,1.28,1.5,1.28
			c0.518,0,1.136-0.161,1.518-0.534c0.076,0.398,0.356,0.534,0.746,0.534c0.161,0,0.466-0.06,0.611-0.11v-0.67
			c-0.102,0.018-0.178,0.018-0.237,0.018c-0.178,0-0.229-0.095-0.229-0.332V560.665z"/>
		<path fill="#FFFFFF" d="M171.812,559.511h0.916v0.645l0.017,0.018c0.288-0.483,0.789-0.78,1.365-0.78
			c0.95,0,1.552,0.509,1.552,1.492v3.01h-0.967v-2.755c-0.017-0.688-0.288-0.984-0.856-0.984c-0.645,0-1.06,0.51-1.06,1.153v2.586
			h-0.966V559.511z"/>
		<path fill="#FFFFFF" d="M179.382,562.42c0,0.609-0.661,0.831-1.084,0.831c-0.339,0-0.891-0.127-0.891-0.561
			c0-0.508,0.374-0.661,0.789-0.729c0.424-0.077,0.89-0.067,1.187-0.263V562.42z M180.349,560.665c0-0.925-0.899-1.272-1.754-1.272
			c-0.967,0-1.925,0.331-1.993,1.458h0.966c0.043-0.475,0.424-0.695,0.967-0.695c0.389,0,0.907,0.094,0.907,0.594
			c0,0.568-0.619,0.492-1.313,0.619c-0.814,0.094-1.688,0.271-1.688,1.365c0,0.855,0.712,1.28,1.501,1.28
			c0.517,0,1.136-0.161,1.517-0.534c0.077,0.398,0.356,0.534,0.746,0.534c0.161,0,0.466-0.06,0.61-0.11v-0.67
			c-0.101,0.018-0.178,0.018-0.237,0.018c-0.178,0-0.229-0.095-0.229-0.332V560.665z"/>
		<path fill="#FFFFFF" d="M182.146,561.749c0-0.788,0.322-1.594,1.229-1.594c0.746,0,1.212,0.577,1.212,1.544
			c0,0.763-0.365,1.552-1.229,1.552C182.52,563.251,182.146,562.504,182.146,561.749z M185.521,557.842h-0.967v2.238h-0.017
			c-0.296-0.483-0.908-0.688-1.458-0.688c-0.958,0-1.898,0.695-1.898,2.281c0,1.313,0.669,2.34,2.051,2.34
			c0.551,0,1.102-0.213,1.356-0.712h0.018v0.593h0.916V557.842z"/>
		<path fill="#FFFFFF" d="M186.597,559.511h0.967v4.384h-0.967V559.511z M186.597,557.842h0.967v0.915h-0.967V557.842z"/>
		<path fill="#FFFFFF" d="M191.32,562.42c0,0.609-0.662,0.831-1.086,0.831c-0.339,0-0.89-0.127-0.89-0.561
			c0-0.508,0.374-0.661,0.79-0.729c0.423-0.077,0.89-0.067,1.187-0.263V562.42z M192.286,560.665c0-0.925-0.898-1.272-1.754-1.272
			c-0.967,0-1.924,0.331-1.993,1.458h0.967c0.042-0.475,0.423-0.695,0.966-0.695c0.39,0,0.907,0.094,0.907,0.594
			c0,0.568-0.619,0.492-1.314,0.619c-0.813,0.094-1.687,0.271-1.687,1.365c0,0.855,0.712,1.28,1.5,1.28
			c0.517,0,1.137-0.161,1.518-0.534c0.077,0.398,0.356,0.534,0.747,0.534c0.161,0,0.466-0.06,0.61-0.11v-0.67
			c-0.101,0.018-0.178,0.018-0.237,0.018c-0.178,0-0.229-0.095-0.229-0.332V560.665z"/>
		<path fill="#FFFFFF" d="M193.329,559.511h0.916v0.645l0.017,0.018c0.288-0.483,0.788-0.78,1.365-0.78
			c0.949,0,1.551,0.509,1.551,1.492v3.01h-0.966v-2.755c-0.017-0.688-0.289-0.984-0.857-0.984c-0.644,0-1.06,0.51-1.06,1.153v2.586
			h-0.966V559.511z"/>
		<path fill="#FFFFFF" d="M201.383,561.877c0,0.932,0.686,1.297,1.534,1.297c0.932,0,1.28-0.457,1.28-0.915
			c0-0.467-0.254-0.653-0.5-0.747c-0.424-0.16-0.975-0.271-1.806-0.499c-1.034-0.28-1.339-0.908-1.339-1.535
			c0-1.213,1.119-1.78,2.212-1.78c1.264,0,2.323,0.67,2.323,1.933h-1.06c-0.051-0.779-0.576-1.068-1.306-1.068
			c-0.492,0-1.111,0.179-1.111,0.789c0,0.424,0.289,0.661,0.721,0.78c0.092,0.024,1.432,0.372,1.746,0.466
			c0.797,0.237,1.179,0.915,1.179,1.543c0,1.356-1.204,1.898-2.408,1.898c-1.382,0-2.501-0.66-2.526-2.161H201.383z"/>
		<path fill="#FFFFFF" d="M209.445,561.707c0,0.764-0.33,1.544-1.212,1.544c-0.78,0-1.229-0.662-1.229-1.544
			c0-0.932,0.415-1.552,1.229-1.552C209.03,560.155,209.445,560.91,209.445,561.707z M206.07,565.514h0.967v-2.188h0.017
			c0.305,0.483,0.907,0.688,1.467,0.688c1.297,0,1.891-1.111,1.891-2.289c0-1.28-0.669-2.332-2.052-2.332
			c-0.559,0-1.084,0.212-1.356,0.712h-0.017v-0.594h-0.917V565.514z"/>
		<path fill="#FFFFFF" d="M213.93,562.42c0,0.609-0.662,0.831-1.086,0.831c-0.339,0-0.89-0.127-0.89-0.561
			c0-0.508,0.374-0.661,0.789-0.729c0.424-0.077,0.891-0.067,1.188-0.263V562.42z M214.896,560.665c0-0.925-0.898-1.272-1.755-1.272
			c-0.966,0-1.924,0.331-1.992,1.458h0.967c0.042-0.475,0.424-0.695,0.966-0.695c0.391,0,0.908,0.094,0.908,0.594
			c0,0.568-0.62,0.492-1.314,0.619c-0.814,0.094-1.687,0.271-1.687,1.365c0,0.855,0.712,1.28,1.5,1.28
			c0.518,0,1.136-0.161,1.518-0.534c0.076,0.398,0.356,0.534,0.746,0.534c0.161,0,0.466-0.06,0.61-0.11v-0.67
			c-0.103,0.018-0.178,0.018-0.238,0.018c-0.178,0-0.229-0.095-0.229-0.332V560.665z"/>
		<path fill="#FFFFFF" d="M218.898,560.978c-0.076-0.533-0.467-0.822-1-0.822c-0.5,0-1.203,0.264-1.203,1.594
			c0,0.73,0.321,1.502,1.161,1.502c0.56,0,0.949-0.374,1.042-1.001h0.967c-0.18,1.136-0.883,1.764-2.01,1.764
			c-1.374,0-2.128-0.976-2.128-2.265c0-1.321,0.721-2.356,2.162-2.356c1.017,0,1.882,0.509,1.976,1.585H218.898z"/>
		<path fill="#FFFFFF" d="M221.408,561.317c0.025-0.652,0.483-1.162,1.152-1.162c0.652,0,1.068,0.552,1.103,1.162H221.408z
			 M224.628,561.953c0.161-1.314-0.686-2.561-2.068-2.561c-1.306,0-2.12,1.068-2.12,2.314c0,1.349,0.771,2.307,2.146,2.307
			c0.958,0,1.772-0.534,1.983-1.492h-0.915c-0.17,0.482-0.509,0.729-1.068,0.729c-0.806,0-1.178-0.611-1.178-1.298H224.628z"/>
		<path fill="#FFFFFF" d="M163.275,567.009h0.017h0.008l0.907,2.603h-1.848L163.275,567.009z M160.409,572.02h1.094l0.568-1.603
			h2.416l0.568,1.603h1.136l-2.331-6.054h-1.127L160.409,572.02z"/>
		<path fill="#FFFFFF" d="M168.54,571.257c-0.806,0-1.153-0.729-1.153-1.45c0-0.729,0.296-1.526,1.153-1.526
			c0.839,0,1.178,0.695,1.178,1.45C169.718,570.477,169.396,571.257,168.54,571.257z M170.685,567.636h-0.967v0.603h-0.017
			c-0.246-0.492-0.746-0.721-1.297-0.721c-1.247,0-1.984,1.018-1.984,2.195c0,1.255,0.577,2.307,1.967,2.307
			c0.543,0,1.042-0.288,1.314-0.771h0.017v0.67c0,0.72-0.348,1.118-1.127,1.118c-0.492,0-0.933-0.093-1.052-0.644h-0.966
			c0.084,1.025,1.076,1.364,1.958,1.364c1.382,0,2.153-0.652,2.153-1.966V567.636z"/>
		<path fill="#FFFFFF" d="M172.414,569.442c0.025-0.653,0.483-1.162,1.152-1.162c0.653,0,1.069,0.551,1.103,1.162H172.414z
			 M175.636,570.078c0.161-1.314-0.687-2.561-2.069-2.561c-1.305,0-2.12,1.068-2.12,2.314c0,1.348,0.772,2.307,2.146,2.307
			c0.958,0,1.771-0.534,1.983-1.493h-0.916c-0.17,0.483-0.509,0.729-1.068,0.729c-0.806,0-1.179-0.61-1.179-1.297H175.636z"/>
		<path fill="#FFFFFF" d="M176.373,567.636h0.916v0.645l0.017,0.018c0.289-0.484,0.788-0.78,1.365-0.78
			c0.95,0,1.552,0.509,1.552,1.492v3.01h-0.967v-2.756c-0.016-0.687-0.288-0.983-0.856-0.983c-0.645,0-1.06,0.509-1.06,1.153v2.586
			h-0.967V567.636z"/>
		<path fill="#FFFFFF" d="M184.198,569.103c-0.077-0.534-0.466-0.822-1-0.822c-0.5,0-1.204,0.264-1.204,1.594
			c0,0.729,0.322,1.501,1.161,1.501c0.56,0,0.949-0.373,1.043-1h0.966c-0.178,1.136-0.882,1.764-2.009,1.764
			c-1.373,0-2.128-0.976-2.128-2.265c0-1.322,0.72-2.356,2.162-2.356c1.017,0,1.882,0.509,1.975,1.585H184.198z"/>
		<path fill="#FFFFFF" d="M185.47,567.636h1.06l1.145,3.273h0.017l1.11-3.273h1.009l-1.704,4.621c-0.313,0.788-0.542,1.5-1.551,1.5
			c-0.229,0-0.45-0.017-0.67-0.051v-0.813c0.152,0.025,0.306,0.06,0.458,0.06c0.45,0,0.56-0.237,0.679-0.611l0.11-0.339
			L185.47,567.636z"/>
	</g>
</g>
</svg>
